<svg xmlns="http://www.w3.org/2000/svg" width="100" height="50" fill="none" viewBox="0 0 100 50"><g fill="#fdf5e5" clip-path="url(#a)"><path d="M0 0v50h50V0zm36.339 36.969h-6.615L25 13.189l-4.725 23.78h-6.614L7.77 13.03h3.37L17 36.843l4.724-23.812h6.551L33 36.843 38.86 13.03h3.37z"/><path d="M75 0a25 25 0 1 0 0 50.001A25 25 0 0 0 75 0m0 48.236a23.236 23.236 0 1 1 0-46.472 23.236 23.236 0 0 1 0 46.472"/><path d="M82.102 36.844 71.299 13.03h-6.583v23.938h3.181V13.157L78.7 36.97h6.584V13.031h-3.182z"/></g><defs><clipPath id="a"><path fill="#fff" d="M0 0h100v50H0z"/></clipPath></defs></svg>